# xmcd
#
# Track frame offsets:
#	182
#	12245
#	28865
#	40795
#	55462
#	69260
#	86867
#	103090
#	115942
#	130192
#	143925
#	163072
#	174962
#	188700
#
# Disc length: 2704 seconds
#
# Revision: 0
# Processed by: cddbd v1.5.2PL0 Copyright (c) Steve Scherf et al.
# Submitted via: dBpowerAMP V4.0
#
DISCID=bf0a8e0e
DTITLE=Gretchen Peters - Buried Treasures
DYEAR=1995
DGENRE=Country
TTITLE0=If Wishes Were Horses
TTITLE1=High Lonesome
TTITLE2=Still Life With A Heartache
TTITLE3=Whenever Angels Sing
TTITLE4=At The End Of A Long Hard Day
TTITLE5=Out To Sea
TTITLE6=Susannah
TTITLE7=Greener Pastures
TTITLE8=Love From A Heart Of Stone
TTITLE9=Life's Rough And Rocky Road
TTITLE10=Main Street
TTITLE11=To Be With You
TTITLE12=I'll Paint The Town
TTITLE13=Jesus In The Wilderness
EXTD=
EXTT0=
EXTT1=
EXTT2=
EXTT3=
EXTT4=
EXTT5=
EXTT6=
EXTT7=
EXTT8=
EXTT9=
EXTT10=
EXTT11=
EXTT12=
EXTT13=
PLAYORDER=
